<svg width="41" height="33" viewBox="0 0 41 33" fill="none" xmlns="http://www.w3.org/2000/svg">
<path d="M40.4841 3.87838C39.3837 5.54793 38.0337 6.97114 36.4341 8.14802C36.4499 8.46365 36.4577 8.8204 36.4577 9.21825C36.4577 11.4288 36.1418 13.6421 35.5098 15.858C34.8779 18.074 33.9126 20.195 32.614 22.2212C31.3154 24.2473 29.7684 26.0423 27.9732 27.6062C26.178 29.17 24.0201 30.4169 21.4995 31.3469C18.9789 32.2769 16.2775 32.7419 13.3952 32.7419C8.89703 32.7419 4.75462 31.5033 0.968018 29.026C1.6401 29.1022 2.28467 29.1404 2.90175 29.1404C6.65964 29.1404 10.016 27.9598 12.9709 25.5985C11.2188 25.5657 9.64963 25.0155 8.26343 23.948C6.87722 22.8804 5.92327 21.5163 5.40157 19.8556C5.91723 19.9558 6.42618 20.0059 6.92841 20.0059C7.65133 20.0059 8.36268 19.9097 9.06245 19.7174C7.19259 19.3354 5.64138 18.3855 4.40882 16.8675C3.17631 15.3497 2.56006 13.5977 2.56006 11.6117V11.5094C3.70778 12.1576 4.93201 12.5024 6.23275 12.5438C5.12506 11.7905 4.24683 10.8083 3.59806 9.59701C2.94924 8.38576 2.62483 7.07497 2.62483 5.66464C2.62483 4.17722 2.99024 2.79215 3.72106 1.50943C5.7545 4.05472 8.21843 6.089 11.1129 7.61226C14.0073 9.13555 17.1126 9.98153 20.4285 10.1502C20.2871 9.54901 20.2162 8.92162 20.216 8.26805C20.216 5.98603 21.0077 4.03751 22.5912 2.42251C24.1746 0.807503 26.085 0 28.3222 0C30.6645 0 32.6375 0.869963 34.2411 2.60989C36.0733 2.23971 37.7888 1.57015 39.3877 0.601207C38.7717 2.5786 37.5848 4.10402 35.8268 5.17748C37.4425 4.98164 38.995 4.5486 40.4841 3.87838H40.4841Z" fill="white"/>
</svg>
