<svg width="45" height="30" viewBox="0 0 45 30" fill="none" xmlns="http://www.w3.org/2000/svg">
<path d="M43.2744 4.79102C43.0192 3.91873 42.5324 3.12399 41.861 2.48362C41.1897 1.84324 40.3566 1.37889 39.4421 1.13545C36.01 0.258326 22.1971 0.258326 22.1971 0.258326C22.1971 0.258326 8.41906 0.240818 4.95206 1.13545C4.03762 1.37889 3.20447 1.84324 2.53315 2.48362C1.86183 3.12399 1.37504 3.91873 1.11983 4.79102C0.469234 8.14284 0.148486 11.5453 0.161773 14.9541C0.150998 18.35 0.471735 21.7395 1.11983 25.0787C1.37504 25.951 1.86183 26.7457 2.53315 27.3861C3.20447 28.0265 4.03762 28.4908 4.95206 28.7343C8.38051 29.6131 22.1971 29.6131 22.1971 29.6131C22.1971 29.6131 35.9733 29.6131 39.4421 28.7343C40.3566 28.4908 41.1897 28.0265 41.861 27.3861C42.5324 26.7457 43.0192 25.951 43.2744 25.0787C43.9089 21.7383 44.2161 18.3488 44.192 14.9541C44.2187 11.5465 43.9114 8.14406 43.2744 4.79102ZM17.7886 21.2411V8.64792L29.2853 14.9541L17.7886 21.2411Z" fill="white"/>
</svg>
