<svg width="201" height="40" viewBox="0 0 201 40" fill="none" xmlns="http://www.w3.org/2000/svg">
<path d="M54.7711 19.984C42.7481 25.8377 30.4735 39.9681 19.6314 39.9681C8.78927 39.9681 0 31.0209 0 19.984C0 8.94716 8.78927 0 19.6314 0C30.4735 0 42.0802 13.5988 54.7711 19.984Z" fill="#1CBFA2"/>
<path d="M51.8064 32.3013C49.2611 32.3013 46.9673 31.7834 44.9251 30.7475C42.9125 29.682 41.3291 28.217 40.1748 26.3524C39.0501 24.4877 38.4878 22.3716 38.4878 20.0038C38.4878 17.6361 39.0501 15.5199 40.1748 13.6553C41.3291 11.7907 42.9125 10.3404 44.9251 9.30455C46.9673 8.23906 49.2611 7.70632 51.8064 7.70632C54.3221 7.70632 56.5123 8.23906 58.3769 9.30455C60.2711 10.3404 61.6474 11.8351 62.5057 13.7885L57.1338 16.6742C55.8908 14.484 54.1001 13.3889 51.762 13.3889C49.9566 13.3889 48.4619 13.9809 47.2781 15.1647C46.0942 16.3486 45.5023 17.9616 45.5023 20.0038C45.5023 22.046 46.0942 23.659 47.2781 24.8429C48.4619 26.0268 49.9566 26.6187 51.762 26.6187C54.1297 26.6187 55.9204 25.5236 57.1338 23.3335L62.5057 26.2636C61.6474 28.1578 60.2711 29.6376 58.3769 30.7031C56.5123 31.7686 54.3221 32.3013 51.8064 32.3013Z" fill="black"/>
<path d="M78.4346 7.70632C82.1342 7.70632 84.9755 8.59423 86.9585 10.37C88.9414 12.1163 89.9329 14.7652 89.9329 18.3168V31.9462H83.4512V28.9717C82.149 31.1914 79.722 32.3013 76.1704 32.3013C74.3354 32.3013 72.7372 31.9906 71.3757 31.369C70.0438 30.7475 69.0228 29.8892 68.3124 28.7941C67.6021 27.699 67.2469 26.4559 67.2469 25.0649C67.2469 22.8451 68.0756 21.0989 69.7331 19.8262C71.4201 18.5536 74.0098 17.9172 77.5023 17.9172H83.0073C83.0073 16.4078 82.5485 15.2535 81.631 14.4544C80.7135 13.6257 79.3373 13.2113 77.5023 13.2113C76.2296 13.2113 74.9717 13.4185 73.7287 13.8329C72.5152 14.2176 71.4793 14.7504 70.621 15.4311L68.1348 10.592C69.4371 9.67451 70.9909 8.96419 72.7964 8.46104C74.6314 7.95789 76.5108 7.70632 78.4346 7.70632ZM77.9018 27.6398C79.0857 27.6398 80.1364 27.3734 81.0539 26.8407C81.9714 26.2784 82.6225 25.4644 83.0073 24.399V21.9572H78.257C75.4157 21.9572 73.995 22.8895 73.995 24.7541C73.995 25.642 74.3354 26.3524 75.0161 26.8851C75.7264 27.3882 76.6883 27.6398 77.9018 27.6398Z" fill="black"/>
<path d="M110.224 32.3013C107.678 32.3013 105.385 31.7834 103.342 30.7475C101.33 29.682 99.7464 28.217 98.5921 26.3524C97.4674 24.4877 96.9051 22.3716 96.9051 20.0038C96.9051 17.6361 97.4674 15.5199 98.5921 13.6553C99.7464 11.7907 101.33 10.3404 103.342 9.30455C105.385 8.23906 107.678 7.70632 110.224 7.70632C112.739 7.70632 114.93 8.23906 116.794 9.30455C118.688 10.3404 120.065 11.8351 120.923 13.7885L115.551 16.6742C114.308 14.484 112.517 13.3889 110.179 13.3889C108.374 13.3889 106.879 13.9809 105.695 15.1647C104.511 16.3486 103.92 17.9616 103.92 20.0038C103.92 22.046 104.511 23.659 105.695 24.8429C106.879 26.0268 108.374 26.6187 110.179 26.6187C112.547 26.6187 114.338 25.5236 115.551 23.3335L120.923 26.2636C120.065 28.1578 118.688 29.6376 116.794 30.7031C114.93 31.7686 112.739 32.3013 110.224 32.3013Z" fill="black"/>
<path d="M142.882 30.7919C142.202 31.295 141.358 31.6798 140.352 31.9462C139.375 32.1829 138.339 32.3013 137.244 32.3013C134.403 32.3013 132.198 31.5762 130.629 30.126C129.09 28.6757 128.321 26.5447 128.321 23.733V13.9217H124.636V8.59423H128.321V2.77844H135.246V8.59423H141.195V13.9217H135.246V23.6442C135.246 24.6505 135.498 25.4348 136.001 25.9972C136.534 26.5299 137.274 26.7963 138.221 26.7963C139.316 26.7963 140.248 26.5003 141.018 25.9084L142.882 30.7919Z" fill="black"/>
<path d="M173.052 8.06148V31.9462H166.482V29.1049C165.564 30.1408 164.469 30.9399 163.196 31.5022C161.924 32.0349 160.547 32.3013 159.068 32.3013C155.93 32.3013 153.444 31.3986 151.609 29.5932C149.774 27.7878 148.857 25.1093 148.857 21.5577V8.06148H155.782V20.5366C155.782 24.3842 157.395 26.308 160.621 26.308C162.279 26.308 163.611 25.7752 164.617 24.7097C165.623 23.6146 166.126 22.0016 166.126 19.8706V8.06148H173.052Z" fill="black"/>
<path d="M189.724 32.3013C187.741 32.3013 185.802 32.0645 183.908 31.591C182.014 31.0878 180.504 30.4663 179.379 29.7264L181.688 24.7541C182.753 25.4348 184.041 25.9972 185.55 26.4411C187.06 26.8555 188.54 27.0627 189.99 27.0627C192.92 27.0627 194.385 26.3376 194.385 24.8873C194.385 24.2066 193.986 23.7182 193.186 23.4223C192.387 23.1263 191.159 22.8747 189.502 22.6675C187.548 22.3716 185.935 22.0312 184.662 21.6464C183.39 21.2617 182.28 20.581 181.333 19.6043C180.415 18.6276 179.957 17.2365 179.957 15.4311C179.957 13.9217 180.386 12.5898 181.244 11.4355C182.132 10.2517 183.405 9.33415 185.062 8.68302C186.749 8.03189 188.732 7.70632 191.011 7.70632C192.698 7.70632 194.37 7.8987 196.028 8.28346C197.715 8.63862 199.106 9.14177 200.201 9.7929L197.892 14.7208C195.791 13.5369 193.497 12.945 191.011 12.945C189.531 12.945 188.421 13.1521 187.681 13.5665C186.941 13.9809 186.571 14.5136 186.571 15.1647C186.571 15.9047 186.971 16.4226 187.77 16.7186C188.569 17.0145 189.842 17.2957 191.588 17.5621C193.542 17.8876 195.14 18.2428 196.383 18.6276C197.626 18.9827 198.706 19.6487 199.624 20.6254C200.541 21.6021 201 22.9635 201 24.7097C201 26.1896 200.556 27.5066 199.668 28.6609C198.78 29.8152 197.478 30.7179 195.761 31.369C194.074 31.9906 192.062 32.3013 189.724 32.3013Z" fill="black"/>
</svg>
