<svg width="46" height="28" viewBox="0 0 46 28" fill="none" xmlns="http://www.w3.org/2000/svg">
<path d="M45.0978 2.34422C45.4584 3.39927 44.2827 5.82258 41.5709 9.61415C41.1947 10.1417 40.6852 10.8423 40.0425 11.716C39.4155 12.5567 38.9845 13.1502 38.7493 13.4964C38.5142 13.8426 38.2752 14.2506 38.0322 14.7204C37.7892 15.1902 37.6952 15.5364 37.75 15.759C37.8049 15.9815 37.9068 16.2659 38.0557 16.6121C38.2046 16.9583 38.4593 17.3127 38.8199 17.6754C39.1804 18.038 39.6271 18.4749 40.1601 18.9859C40.2228 19.0189 40.262 19.0519 40.2777 19.0848C42.4879 21.2444 43.9849 23.066 44.7686 24.5496C44.8157 24.6321 44.8666 24.7351 44.9215 24.8587C44.9763 24.9824 45.0312 25.2008 45.0861 25.514C45.1409 25.8272 45.137 26.1075 45.0743 26.3547C45.0116 26.602 44.8157 26.8287 44.4865 27.0348C44.1573 27.2408 43.6949 27.3439 43.0992 27.3439L37.0799 27.4428C36.7037 27.5252 36.2648 27.484 35.7632 27.3191C35.2616 27.1543 34.854 26.9729 34.5405 26.7751L34.0703 26.4784C33.6 26.1322 33.0514 25.6047 32.4244 24.8958C31.7973 24.187 31.2605 23.5482 30.8137 22.9794C30.367 22.4107 29.8889 21.9326 29.3794 21.5452C28.87 21.1578 28.4272 21.0301 28.0509 21.1619C28.0039 21.1784 27.9412 21.2073 27.8628 21.2485C27.7845 21.2897 27.6512 21.4092 27.4631 21.607C27.275 21.8049 27.1065 22.048 26.9576 22.3365C26.8087 22.625 26.6754 23.0536 26.5579 23.6223C26.4403 24.1911 26.3894 24.8299 26.405 25.5387C26.405 25.786 26.3776 26.0127 26.3227 26.2187C26.2679 26.4248 26.2091 26.5773 26.1464 26.6762L26.0523 26.7998C25.7702 27.1131 25.3548 27.2944 24.8062 27.3439H22.1022C20.9892 27.4098 19.8449 27.2738 18.6693 26.9358C17.4936 26.5979 16.463 26.1611 15.5773 25.6253C14.6917 25.0895 13.8844 24.5455 13.1555 23.9933C12.4266 23.441 11.874 22.9671 11.4978 22.5714L10.91 21.978C10.7533 21.8131 10.5377 21.5658 10.2634 21.2361C9.98908 20.9064 9.42869 20.1564 8.58222 18.9859C7.73576 17.8155 6.90497 16.5709 6.08985 15.252C5.27474 13.9332 4.31463 12.1941 3.20952 10.0345C2.10441 7.87497 1.0816 5.633 0.141078 3.3086C0.0470259 3.04484 0 2.82229 0 2.64095C0 2.45962 0.0235129 2.32774 0.0705388 2.24531L0.164591 2.09695C0.39972 1.78373 0.846466 1.62712 1.50483 1.62712L7.94738 1.57767C8.13548 1.61064 8.31574 1.66421 8.48817 1.7384C8.6606 1.81258 8.786 1.88264 8.86438 1.94858L8.98195 2.02276C9.23275 2.2041 9.42085 2.46786 9.54626 2.81405C9.85976 3.6383 10.2203 4.4914 10.6279 5.37336C11.0354 6.25531 11.3568 6.92708 11.5919 7.38866L11.9681 8.10576C12.4227 9.09486 12.8616 9.95209 13.2848 10.6774C13.708 11.4028 14.0882 11.9674 14.4252 12.3713C14.7622 12.7752 15.0875 13.0925 15.401 13.3233C15.7145 13.5541 15.981 13.6695 16.2004 13.6695C16.4199 13.6695 16.6315 13.6283 16.8353 13.5458C16.8666 13.5294 16.9058 13.4881 16.9528 13.4222C16.9999 13.3563 17.0939 13.1749 17.235 12.8782C17.3761 12.5815 17.4819 12.1941 17.5524 11.716C17.623 11.2379 17.6974 10.5703 17.7758 9.71306C17.8542 8.85583 17.8542 7.82551 17.7758 6.6221C17.7444 5.9627 17.6739 5.36099 17.5642 4.81699C17.4544 4.27298 17.3447 3.89382 17.235 3.67951L17.0939 3.38278C16.702 2.82229 16.0358 2.46786 15.0953 2.31949C14.8915 2.28652 14.9307 2.0887 15.2129 1.72603C15.4637 1.41281 15.7615 1.16554 16.1064 0.984203C16.9372 0.55559 18.8104 0.357769 21.726 0.39074C23.0113 0.407225 24.0694 0.514378 24.9002 0.712199C25.2137 0.794624 25.4763 0.905899 25.6879 1.04602C25.8995 1.18614 26.0602 1.38397 26.1699 1.63948C26.2796 1.895 26.3619 2.15877 26.4168 2.43077C26.4717 2.70277 26.4991 3.07781 26.4991 3.55588C26.4991 4.03394 26.4913 4.48728 26.4756 4.9159C26.4599 5.34451 26.4403 5.92561 26.4168 6.65919C26.3933 7.39278 26.3815 8.07279 26.3815 8.69922C26.3815 8.88056 26.3737 9.22675 26.358 9.73778C26.3423 10.2488 26.3384 10.6445 26.3463 10.9247C26.3541 11.205 26.3815 11.5388 26.4285 11.9262C26.4756 12.3136 26.5657 12.635 26.6989 12.8906C26.8322 13.1461 27.0085 13.348 27.228 13.4964C27.3534 13.5294 27.4866 13.5623 27.6277 13.5953C27.7688 13.6283 27.9726 13.5376 28.239 13.3233C28.5055 13.109 28.8034 12.8246 29.1325 12.4702C29.4617 12.1158 29.8693 11.5635 30.3552 10.8134C30.8411 10.0634 31.3741 9.17729 31.9541 8.15522C32.8946 6.44077 33.7332 4.58619 34.47 2.5915C34.5327 2.42665 34.6111 2.2824 34.7051 2.15877C34.7992 2.03513 34.8854 1.94858 34.9637 1.89912L35.0578 1.82494L35.1754 1.76312L35.481 1.68894L35.9513 1.67658L42.723 1.62712C43.3344 1.5447 43.836 1.5653 44.2278 1.68894C44.6197 1.81258 44.8627 1.94858 44.9567 2.09695L45.0978 2.34422Z" fill="white"/>
</svg>
