<svg width="37" height="35" viewBox="0 0 37 35" fill="none" xmlns="http://www.w3.org/2000/svg">
<path d="M24.0075 19.2638C24.2114 19.2638 24.9759 19.5954 26.3009 20.2586C27.6259 20.9219 28.3277 21.3213 28.4061 21.457C28.4374 21.5323 28.4531 21.6454 28.4531 21.7961C28.4531 22.2935 28.3198 22.8663 28.0532 23.5145C27.8024 24.1023 27.2457 24.596 26.3832 24.9954C25.5208 25.3948 24.721 25.5946 23.984 25.5946C23.0902 25.5946 21.6005 25.1273 19.5149 24.1928C17.9782 23.5145 16.6453 22.6251 15.5163 21.5248C14.3873 20.4244 13.2269 19.0302 12.0351 17.342C10.9061 15.7291 10.3494 14.267 10.3651 12.9557V12.7748C10.4121 11.4031 10.9923 10.2123 12.1057 9.20244C12.482 8.87083 12.8897 8.70502 13.3288 8.70502C13.4229 8.70502 13.564 8.71633 13.7522 8.73894C13.9403 8.76155 14.0893 8.77285 14.1991 8.77285C14.497 8.77285 14.7048 8.82184 14.8224 8.91982C14.94 9.01779 15.0615 9.22505 15.187 9.54159C15.3124 9.84305 15.5712 10.5063 15.9632 11.5313C16.3552 12.5562 16.5512 13.1215 16.5512 13.227C16.5512 13.5435 16.2807 13.9769 15.7397 14.5271C15.1987 15.0772 14.9282 15.4277 14.9282 15.5784C14.9282 15.6839 14.9675 15.797 15.0459 15.9176C15.579 17.0179 16.3787 18.0504 17.445 19.0151C18.3232 19.814 19.5071 20.5752 20.9968 21.2987C21.185 21.4042 21.3575 21.457 21.5143 21.457C21.7495 21.457 22.1729 21.0914 22.7844 20.3604C23.396 19.6293 23.8037 19.2638 24.0075 19.2638ZM19.2327 31.247C21.2242 31.247 23.1333 30.8702 24.9602 30.1165C26.787 29.3629 28.359 28.353 29.6762 27.0868C30.9934 25.8207 32.0441 24.3096 32.8281 22.5535C33.6122 20.7975 34.0042 18.9623 34.0042 17.048C34.0042 15.1337 33.6122 13.2986 32.8281 11.5426C32.0441 9.78653 30.9934 8.27544 29.6762 7.00929C28.359 5.74314 26.787 4.73323 24.9602 3.97957C23.1333 3.22591 21.2242 2.84908 19.2327 2.84908C17.2412 2.84908 15.332 3.22591 13.5052 3.97957C11.6784 4.73323 10.1063 5.74314 8.78914 7.00929C7.47193 8.27544 6.4213 9.78653 5.63725 11.5426C4.8532 13.2986 4.46118 15.1337 4.46118 17.048C4.46118 20.1079 5.40204 22.8814 7.28376 25.3685L5.42556 30.6365L11.1178 28.8956C13.5954 30.4632 16.3003 31.247 19.2327 31.247ZM19.2327 0.000244141C21.6319 0.000244141 23.9252 0.452441 26.1127 1.35683C28.3002 2.26123 30.1859 3.47462 31.7696 4.99701C33.3534 6.51941 34.6157 8.33196 35.5566 10.4347C36.4975 12.5374 36.9679 14.7418 36.9679 17.048C36.9679 19.3542 36.4975 21.5587 35.5566 23.6614C34.6157 25.7641 33.3534 27.5767 31.7696 29.0991C30.1859 30.6215 28.3002 31.8349 26.1127 32.7393C23.9252 33.6437 21.6319 34.0959 19.2327 34.0959C16.1749 34.0959 13.3131 33.3874 10.6473 31.9705L0.838867 35.0002L4.03779 25.8433C2.34424 23.1602 1.49747 20.2285 1.49747 17.048C1.49747 14.7418 1.9679 12.5374 2.90876 10.4347C3.84962 8.33196 5.11194 6.51941 6.69572 4.99701C8.2795 3.47462 10.1651 2.26123 12.3526 1.35683C14.5401 0.452441 16.8335 0.000244141 19.2327 0.000244141Z" fill="white"/>
</svg>
